<svg xmlns="http://www.w3.org/2000/svg" width="823" height="148" class="js-calendar-graph-svg"><style>@keyframes c0{60%{transform:rotate(0deg)}}@keyframes c1{60%{transform:rotate(0deg)}}@keyframes c2{60%{transform:rotate(0deg)}}@keyframes c3{60%{transform:rotate(0deg)}}@keyframes c4{60%{transform:rotate(0deg)}}@keyframes c5{60%{transform:rotate(0deg)}}@keyframes c6{60%{transform:rotate(0deg)}}@keyframes c7{60%{transform:rotate(0deg)}}@keyframes c8{60%{transform:rotate(0deg)}}@keyframes c9{60%{transform:rotate(0deg)}}@keyframes c10{60%{transform:rotate(0deg)}}@keyframes c11{60%{transform:rotate(0deg)}}@keyframes c12{60%{transform:rotate(0deg)}}@keyframes c13{60%{transform:rotate(0deg)}}@keyframes c14{60%{transform:rotate(0deg)}}@keyframes c15{60%{transform:rotate(0deg)}}@keyframes c16{60%{transform:rotate(0deg)}}@keyframes c17{60%{transform:rotate(0deg)}}@keyframes c18{60%{transform:rotate(0deg)}}@keyframes c19{60%{transform:rotate(0deg)}}@keyframes c20{60%{transform:rotate(0deg)}}@keyframes c21{60%{transform:rotate(0deg)}}@keyframes c22{60%{transform:rotate(0deg)}}@keyframes c23{60%{transform:rotate(0deg)}}@keyframes c24{60%{transform:rotate(0deg)}}@keyframes c25{60%{transform:rotate(0deg)}}@keyframes c26{60%{transform:rotate(0deg)}}@keyframes c27{60%{transform:rotate(0deg)}}@keyframes c28{60%{transform:rotate(0deg)}}@keyframes c29{60%{transform:rotate(0deg)}}@keyframes c30{60%{transform:rotate(0deg)}}@keyframes c31{60%{transform:rotate(0deg)}}@keyframes c32{60%{transform:rotate(0deg)}}@keyframes c33{60%{transform:rotate(0deg)}}@keyframes c34{60%{transform:rotate(0deg)}}@keyframes c35{60%{transform:rotate(0deg)}}@keyframes c36{60%{transform:rotate(0deg)}}@keyframes c37{60%{transform:rotate(0deg)}}@keyframes c38{60%{transform:rotate(0deg)}}@keyframes c39{60%{transform:rotate(0deg)}}@keyframes c40{60%{transform:rotate(0deg)}}@keyframes c41{60%{transform:rotate(0deg)}}@keyframes c42{60%{transform:rotate(0deg)}}@keyframes c43{60%{transform:rotate(0deg)}}@keyframes c44{60%{transform:rotate(0deg)}}@keyframes c45{60%{transform:rotate(0deg)}}@keyframes c46{60%{transform:rotate(0deg)}}@keyframes c47{60%{transform:rotate(0deg)}}@keyframes c48{60%{transform:rotate(0deg)}}@keyframes c49{60%{transform:rotate(0deg)}}@keyframes c50{60%{transform:rotate(0deg)}}@keyframes c51{60%{transform:rotate(0deg)}}@keyframes c52{60%{transform:rotate(0deg)}}@keyframes c53{60%{transform:rotate(0deg)}}@keyframes c54{60%{transform:rotate(0deg)}}@keyframes c55{60%{transform:rotate(0deg)}}@keyframes c56{60%{transform:rotate(0deg)}}@keyframes c57{60%{transform:rotate(0deg)}}@keyframes c58{60%{transform:rotate(0deg)}}@keyframes c59{60%{transform:rotate(0deg)}}@keyframes c60{60%{transform:rotate(0deg)}}@keyframes c61{60%{transform:rotate(0deg)}}@keyframes c62{60%{transform:rotate(0deg)}}@keyframes c63{60%{transform:rotate(0deg)}}@keyframes c64{60%{transform:rotate(0deg)}}@keyframes c65{60%{transform:rotate(0deg)}}@keyframes c66{60%{transform:rotate(0deg)}}@keyframes c67{60%{transform:rotate(0deg)}}@keyframes c68{60%{transform:rotate(0deg)}}@keyframes c69{60%{transform:rotate(0deg)}}@keyframes c70{60%{transform:rotate(0deg)}}@keyframes c71{60%{transform:rotate(0deg)}}@keyframes c72{60%{transform:rotate(0deg)}}@keyframes c73{60%{transform:rotate(0deg)}}@keyframes c74{60%{transform:rotate(0deg)}}@keyframes c75{60%{transform:rotate(0deg)}}@keyframes c76{60%{transform:rotate(0deg)}}@keyframes c77{60%{transform:rotate(0deg)}}@keyframes c78{60%{transform:rotate(0deg)}}@keyframes c79{60%{transform:rotate(0deg)}}@keyframes c80{60%{transform:rotate(0deg)}}@keyframes c81{60%{transform:rotate(0deg)}}@keyframes c82{60%{transform:rotate(0deg)}}@keyframes c83{60%{transform:rotate(0deg)}}@keyframes c84{60%{transform:rotate(0deg)}}@keyframes c85{60%{transform:rotate(0deg)}}@keyframes c86{60%{transform:rotate(0deg)}}@keyframes c87{60%{transform:rotate(0deg)}}@keyframes c88{60%{transform:rotate(0deg)}}@keyframes c89{60%{transform:rotate(0deg)}}@keyframes c90{60%{transform:rotate(0deg)}}@keyframes c91{60%{transform:rotate(0deg)}}@keyframes c92{60%{transform:rotate(0deg)}}@keyframes c93{60%{transform:rotate(0deg)}}@keyframes c94{60%{transform:rotate(0deg)}}@keyframes c95{60%{transform:rotate(0deg)}}@keyframes c96{60%{transform:rotate(0deg)}}@keyframes c97{60%{transform:rotate(0deg)}}@keyframes c98{60%{transform:rotate(0deg)}}@keyframes c99{60%{transform:rotate(0deg)}}@keyframes c100{60%{transform:rotate(0deg)}}@keyframes c101{60%{transform:rotate(0deg)}}@keyframes c102{60%{transform:rotate(0deg)}}@keyframes c103{60%{transform:rotate(0deg)}}@keyframes c104{60%{transform:rotate(0deg)}}:root{--c0:rgba(27, 31, 35, 0.06);--c1:#9be9a8;--c2:#40c463;--c3:#30a14e;--c4:#216e39}.o,.o[data-level=&quot;0&quot;]{fill:var(--c0);shape-rendering:geometricPrecision;outline-offset:-1px}.o,.o[data-level=&quot;0&quot;],.o[data-level=&quot;1&quot;],.o[data-level=&quot;2&quot;],.o[data-level=&quot;3&quot;],.o[data-level=&quot;4&quot;]{outline:1px solid var(--c0)}.c{animation-iteration-count:infinite;animation-duration:5s}.c.c0{animation-name:c0}.c.c1{animation-name:c1}.c.c2{animation-name:c2}.c.c3{animation-name:c3}.c.c4{animation-name:c4}.c.c5{animation-name:c5}.c.c6{animation-name:c6}.c.c7{animation-name:c7}.c.c8{animation-name:c8}.c.c9{animation-name:c9}.c.c10{animation-name:c10}.c.c11{animation-name:c11}.c.c12{animation-name:c12}.c.c13{animation-name:c13}.c.c14{animation-name:c14}.c.c15{animation-name:c15}.c.c16{animation-name:c16}.c.c17{animation-name:c17}.c.c18{animation-name:c18}.c.c19{animation-name:c19}.c.c20{animation-name:c20}.c.c21{animation-name:c21}.c.c22{animation-name:c22}.c.c23{animation-name:c23}.c.c24{animation-name:c24}.c.c25{animation-name:c25}.c.c26{animation-name:c26}.c.c27{animation-name:c27}.c.c28{animation-name:c28}.c.c29{animation-name:c29}.c.c30{animation-name:c30}.c.c31{animation-name:c31}.c.c32{animation-name:c32}.c.c33{animation-name:c33}.c.c34{animation-name:c34}.c.c35{animation-name:c35}.c.c36{animation-name:c36}.c.c37{animation-name:c37}.c.c38{animation-name:c38}.c.c39{animation-name:c39}.c.c40{animation-name:c40}.c.c41{animation-name:c41}.c.c42{animation-name:c42}.c.c43{animation-name:c43}.c.c44{animation-name:c44}.c.c45{animation-name:c45}.c.c46{animation-name:c46}.c.c47{animation-name:c47}.c.c48{animation-name:c48}.c.c49{animation-name:c49}.c.c50{animation-name:c50}.c.c51{animation-name:c51}.c.c52{animation-name:c52}.c.c53{animation-name:c53}.c.c54{animation-name:c54}.c.c55{animation-name:c55}.c.c56{animation-name:c56}.c.c57{animation-name:c57}.c.c58{animation-name:c58}.c.c59{animation-name:c59}.c.c60{animation-name:c60}.c.c61{animation-name:c61}.c.c62{animation-name:c62}.c.c63{animation-name:c63}.c.c64{animation-name:c64}.c.c65{animation-name:c65}.c.c66{animation-name:c66}.c.c67{animation-name:c67}.c.c68{animation-name:c68}.c.c69{animation-name:c69}.c.c70{animation-name:c70}.c.c71{animation-name:c71}.c.c72{animation-name:c72}.c.c73{animation-name:c73}.c.c74{animation-name:c74}.c.c75{animation-name:c75}.c.c76{animation-name:c76}.c.c77{animation-name:c77}.c.c78{animation-name:c78}.c.c79{animation-name:c79}.c.c80{animation-name:c80}.c.c81{animation-name:c81}.c.c82{animation-name:c82}.c.c83{animation-name:c83}.c.c84{animation-name:c84}.c.c85{animation-name:c85}.c.c86{animation-name:c86}.c.c87{animation-name:c87}.c.c88{animation-name:c88}.c.c89{animation-name:c89}.c.c90{animation-name:c90}.c.c91{animation-name:c91}.c.c92{animation-name:c92}.c.c93{animation-name:c93}.c.c94{animation-name:c94}.c.c95{animation-name:c95}.c.c96{animation-name:c96}.c.c97{animation-name:c97}.c.c98{animation-name:c98}.c.c99{animation-name:c99}.c.c100{animation-name:c100}.c.c101{animation-name:c101}.c.c102{animation-name:c102}.c.c103{animation-name:c103}.c.c104{animation-name:c104}</style><g><g transform="translate(15, 20) translate(0, 0)"><rect width="11" height="11" x="16" y="0" class="o" data-level="0" rx="2" ry="2"/><rect width="11" height="11" x="16" y="15" class="o" data-level="0" rx="2" ry="2"/><rect width="11" height="11" x="16" y="30" class="o" data-level="0" rx="2" ry="2"/><rect width="11" height="11" x="16" y="45" class="o" data-level="0" rx="2" ry="2"/><rect width="11" height="11" x="16" y="60" class="o" data-level="0" rx="2" ry="2"/><rect width="11" height="11" x="16" y="75" class="o" data-level="0" rx="2" ry="2"/><rect width="11" height="11" x="16" y="90" class="o" data-level="0" rx="2" ry="2"/></g><g transform="translate(15, 20) translate(16, 0)"><rect width="11" height="11" x="15" y="0" class="o" data-level="0" rx="2" ry="2"/><rect width="11" height="11" x="15" y="15" class="o" data-level="0" rx="2" ry="2"/><rect width="11" height="11" x="15" y="30" class="o" data-level="0" rx="2" ry="2"/><rect width="11" height="11" x="15" y="45" class="o" data-level="0" rx="2" ry="2"/><rect width="11" height="11" x="15" y="60" class="o" data-level="0" rx="2" ry="2"/><rect width="11" height="11" x="15" y="75" class="o" data-level="0" rx="2" ry="2"/><rect width="11" height="11" x="15" y="90" class="o" data-level="0" rx="2" ry="2"/></g><g transform="translate(15, 20) translate(32, 0)"><rect width="11" height="11" x="14" y="0" class="o" data-level="0" rx="2" ry="2"/><rect width="11" height="11" x="14" y="15" class="o" data-level="0" rx="2" ry="2"/><rect width="11" height="11" x="14" y="30" class="o" data-level="0" rx="2" ry="2"/><rect width="11" height="11" x="14" y="45" class="o" data-level="0" rx="2" ry="2"/><rect width="11" height="11" x="14" y="60" class="o" data-level="0" rx="2" ry="2"/><rect width="11" height="11" x="14" y="75" class="o" data-level="0" rx="2" ry="2"/><rect width="11" height="11" x="14" y="90" class="o" data-level="0" rx="2" ry="2"/></g><g transform="translate(15, 20) translate(48, 0)"><rect width="11" height="11" x="13" y="0" class="o c c0" data-level="0" rx="2" ry="2"/><rect width="11" height="11" x="13" y="15" class="o" data-level="0" rx="2" ry="2"/><rect width="11" height="11" x="13" y="30" class="o" data-level="0" rx="2" ry="2"/><rect width="11" height="11" x="13" y="45" class="o" data-level="0" rx="2" ry="2"/><rect width="11" height="11" x="13" y="60" class="o" data-level="0" rx="2" ry="2"/><rect width="11" height="11" x="13" y="75" class="o" data-level="0" rx="2" ry="2"/><rect width="11" height="11" x="13" y="90" class="o" data-level="0" rx="2" ry="2"/></g><g transform="translate(15, 20) translate(64, 0)"><rect width="11" height="11" x="12" y="0" class="o c c1" data-level="0" rx="2" ry="2"/><rect width="11" height="11" x="12" y="15" class="o" data-level="0" rx="2" ry="2"/><rect width="11" height="11" x="12" y="30" class="o" data-level="0" rx="2" ry="2"/><rect width="11" height="11" x="12" y="45" class="o" data-level="0" rx="2" ry="2"/><rect width="11" height="11" x="12" y="60" class="o" data-level="0" rx="2" ry="2"/><rect width="11" height="11" x="12" y="75" class="o" data-level="0" rx="2" ry="2"/><rect width="11" height="11" x="12" y="90" class="o" data-level="0" rx="2" ry="2"/></g><g transform="translate(15, 20) translate(80, 0)"><rect width="11" height="11" x="11" y="0" class="o c c2" data-level="0" rx="2" ry="2"/><rect width="11" height="11" x="11" y="15" class="o c c3" data-level="0" rx="2" ry="2"/><rect width="11" height="11" x="11" y="30" class="o c c4" data-level="0" rx="2" ry="2"/><rect width="11" height="11" x="11" y="45" class="o c c5" data-level="0" rx="2" ry="2"/><rect width="11" height="11" x="11" y="60" class="o c c6" data-level="0" rx="2" ry="2"/><rect width="11" height="11" x="11" y="75" class="o c c7" data-level="0" rx="2" ry="2"/><rect width="11" height="11" x="11" y="90" class="o c c8" data-level="0" rx="2" ry="2"/></g><g transform="translate(15, 20) translate(96, 0)"><rect width="11" height="11" x="10" y="0" class="o c c9" data-level="0" rx="2" ry="2"/><rect width="11" height="11" x="10" y="15" class="o" data-level="0" rx="2" ry="2"/><rect width="11" height="11" x="10" y="30" class="o" data-level="0" rx="2" ry="2"/><rect width="11" height="11" x="10" y="45" class="o" data-level="0" rx="2" ry="2"/><rect width="11" height="11" x="10" y="60" class="o" data-level="0" rx="2" ry="2"/><rect width="11" height="11" x="10" y="75" class="o" data-level="0" rx="2" ry="2"/><rect width="11" height="11" x="10" y="90" class="o" data-level="0" rx="2" ry="2"/></g><g transform="translate(15, 20) translate(112, 0)"><rect width="11" height="11" x="9" y="0" class="o c c10" data-level="0" rx="2" ry="2"/><rect width="11" height="11" x="9" y="15" class="o" data-level="0" rx="2" ry="2"/><rect width="11" height="11" x="9" y="30" class="o" data-level="0" rx="2" ry="2"/><rect width="11" height="11" x="9" y="45" class="o" data-level="0" rx="2" ry="2"/><rect width="11" height="11" x="9" y="60" class="o" data-level="0" rx="2" ry="2"/><rect width="11" height="11" x="9" y="75" class="o" data-level="0" rx="2" ry="2"/><rect width="11" height="11" x="9" y="90" class="o" data-level="0" rx="2" ry="2"/></g><g transform="translate(15, 20) translate(128, 0)"><rect width="11" height="11" x="8" y="0" class="o" data-level="0" rx="2" ry="2"/><rect width="11" height="11" x="8" y="15" class="o" data-level="0" rx="2" ry="2"/><rect width="11" height="11" x="8" y="30" class="o" data-level="0" rx="2" ry="2"/><rect width="11" height="11" x="8" y="45" class="o" data-level="0" rx="2" ry="2"/><rect width="11" height="11" x="8" y="60" class="o" data-level="0" rx="2" ry="2"/><rect width="11" height="11" x="8" y="75" class="o" data-level="0" rx="2" ry="2"/><rect width="11" height="11" x="8" y="90" class="o" data-level="0" rx="2" ry="2"/></g><g transform="translate(15, 20) translate(144, 0)"><rect width="11" height="11" x="7" y="0" class="o" data-level="0" rx="2" ry="2"/><rect width="11" height="11" x="7" y="15" class="o" data-level="0" rx="2" ry="2"/><rect width="11" height="11" x="7" y="30" class="o" data-level="0" rx="2" ry="2"/><rect width="11" height="11" x="7" y="45" class="o" data-level="0" rx="2" ry="2"/><rect width="11" height="11" x="7" y="60" class="o" data-level="0" rx="2" ry="2"/><rect width="11" height="11" x="7" y="75" class="o" data-level="0" rx="2" ry="2"/><rect width="11" height="11" x="7" y="90" class="o" data-level="0" rx="2" ry="2"/></g><g transform="translate(15, 20) translate(160, 0)"><rect width="11" height="11" x="6" y="0" class="o c c11" data-level="0" rx="2" ry="2"/><rect width="11" height="11" x="6" y="15" class="o" data-level="0" rx="2" ry="2"/><rect width="11" height="11" x="6" y="30" class="o" data-level="0" rx="2" ry="2"/><rect width="11" height="11" x="6" y="45" class="o" data-level="0" rx="2" ry="2"/><rect width="11" height="11" x="6" y="60" class="o" data-level="0" rx="2" ry="2"/><rect width="11" height="11" x="6" y="75" class="o" data-level="0" rx="2" ry="2"/><rect width="11" height="11" x="6" y="90" class="o c c12" data-level="0" rx="2" ry="2"/></g><g transform="translate(15, 20) translate(176, 0)"><rect width="11" height="11" x="5" y="0" class="o c c13" data-level="0" rx="2" ry="2"/><rect width="11" height="11" x="5" y="15" class="o c c14" data-level="0" rx="2" ry="2"/><rect width="11" height="11" x="5" y="30" class="o c c15" data-level="0" rx="2" ry="2"/><rect width="11" height="11" x="5" y="45" class="o c c16" data-level="0" rx="2" ry="2"/><rect width="11" height="11" x="5" y="60" class="o c c17" data-level="0" rx="2" ry="2"/><rect width="11" height="11" x="5" y="75" class="o c c18" data-level="0" rx="2" ry="2"/><rect width="11" height="11" x="5" y="90" class="o c c19" data-level="0" rx="2" ry="2"/></g><g transform="translate(15, 20) translate(192, 0)"><rect width="11" height="11" x="4" y="0" class="o c c20" data-level="0" rx="2" ry="2"/><rect width="11" height="11" x="4" y="15" class="o" data-level="0" rx="2" ry="2"/><rect width="11" height="11" x="4" y="30" class="o" data-level="0" rx="2" ry="2"/><rect width="11" height="11" x="4" y="45" class="o" data-level="0" rx="2" ry="2"/><rect width="11" height="11" x="4" y="60" class="o" data-level="0" rx="2" ry="2"/><rect width="11" height="11" x="4" y="75" class="o" data-level="0" rx="2" ry="2"/><rect width="11" height="11" x="4" y="90" class="o c c21" data-level="0" rx="2" ry="2"/></g><g transform="translate(15, 20) translate(208, 0)"><rect width="11" height="11" x="3" y="0" class="o" data-level="0" rx="2" ry="2"/><rect width="11" height="11" x="3" y="15" class="o" data-level="0" rx="2" ry="2"/><rect width="11" height="11" x="3" y="30" class="o" data-level="0" rx="2" ry="2"/><rect width="11" height="11" x="3" y="45" class="o" data-level="0" rx="2" ry="2"/><rect width="11" height="11" x="3" y="60" class="o" data-level="0" rx="2" ry="2"/><rect width="11" height="11" x="3" y="75" class="o" data-level="0" rx="2" ry="2"/><rect width="11" height="11" x="3" y="90" class="o" data-level="0" rx="2" ry="2"/></g><g transform="translate(15, 20) translate(224, 0)"><rect width="11" height="11" x="2" y="0" class="o" data-level="0" rx="2" ry="2"/><rect width="11" height="11" x="2" y="15" class="o" data-level="0" rx="2" ry="2"/><rect width="11" height="11" x="2" y="30" class="o" data-level="0" rx="2" ry="2"/><rect width="11" height="11" x="2" y="45" class="o" data-level="0" rx="2" ry="2"/><rect width="11" height="11" x="2" y="60" class="o" data-level="0" rx="2" ry="2"/><rect width="11" height="11" x="2" y="75" class="o" data-level="0" rx="2" ry="2"/><rect width="11" height="11" x="2" y="90" class="o" data-level="0" rx="2" ry="2"/></g><g transform="translate(15, 20) translate(240, 0)"><rect width="11" height="11" x="1" y="0" class="o c c22" data-level="0" rx="2" ry="2"/><rect width="11" height="11" x="1" y="15" class="o c c23" data-level="0" rx="2" ry="2"/><rect width="11" height="11" x="1" y="30" class="o c c24" data-level="0" rx="2" ry="2"/><rect width="11" height="11" x="1" y="45" class="o c c25" data-level="0" rx="2" ry="2"/><rect width="11" height="11" x="1" y="60" class="o c c26" data-level="0" rx="2" ry="2"/><rect width="11" height="11" x="1" y="75" class="o c c27" data-level="0" rx="2" ry="2"/><rect width="11" height="11" x="1" y="90" class="o c c28" data-level="0" rx="2" ry="2"/></g><g transform="translate(15, 20) translate(256, 0)"><rect width="11" height="11" x="0" y="0" class="o c c29" data-level="0" rx="2" ry="2"/><rect width="11" height="11" x="0" y="15" class="o" data-level="0" rx="2" ry="2"/><rect width="11" height="11" x="0" y="30" class="o" data-level="0" rx="2" ry="2"/><rect width="11" height="11" x="0" y="45" class="o c c30" data-level="0" rx="2" ry="2"/><rect width="11" height="11" x="0" y="60" class="o" data-level="0" rx="2" ry="2"/><rect width="11" height="11" x="0" y="75" class="o" data-level="0" rx="2" ry="2"/><rect width="11" height="11" x="0" y="90" class="o c c31" data-level="0" rx="2" ry="2"/></g><g transform="translate(15, 20) translate(272, 0)"><rect width="11" height="11" x="-1" y="0" class="o c c32" data-level="0" rx="2" ry="2"/><rect width="11" height="11" x="-1" y="15" class="o" data-level="0" rx="2" ry="2"/><rect width="11" height="11" x="-1" y="30" class="o" data-level="0" rx="2" ry="2"/><rect width="11" height="11" x="-1" y="45" class="o c c33" data-level="0" rx="2" ry="2"/><rect width="11" height="11" x="-1" y="60" class="o" data-level="0" rx="2" ry="2"/><rect width="11" height="11" x="-1" y="75" class="o" data-level="0" rx="2" ry="2"/><rect width="11" height="11" x="-1" y="90" class="o c c34" data-level="0" rx="2" ry="2"/></g><g transform="translate(15, 20) translate(288, 0)"><rect width="11" height="11" x="-2" y="0" class="o c c35" data-level="0" rx="2" ry="2"/><rect width="11" height="11" x="-2" y="15" class="o" data-level="0" rx="2" ry="2"/><rect width="11" height="11" x="-2" y="30" class="o" data-level="0" rx="2" ry="2"/><rect width="11" height="11" x="-2" y="45" class="o c c36" data-level="0" rx="2" ry="2"/><rect width="11" height="11" x="-2" y="60" class="o" data-level="0" rx="2" ry="2"/><rect width="11" height="11" x="-2" y="75" class="o" data-level="0" rx="2" ry="2"/><rect width="11" height="11" x="-2" y="90" class="o c c37" data-level="0" rx="2" ry="2"/></g><g transform="translate(15, 20) translate(304, 0)"><rect width="11" height="11" x="-3" y="0" class="o c c38" data-level="0" rx="2" ry="2"/><rect width="11" height="11" x="-3" y="15" class="o" data-level="0" rx="2" ry="2"/><rect width="11" height="11" x="-3" y="30" class="o" data-level="0" rx="2" ry="2"/><rect width="11" height="11" x="-3" y="45" class="o" data-level="0" rx="2" ry="2"/><rect width="11" height="11" x="-3" y="60" class="o" data-level="0" rx="2" ry="2"/><rect width="11" height="11" x="-3" y="75" class="o" data-level="0" rx="2" ry="2"/><rect width="11" height="11" x="-3" y="90" class="o c c39" data-level="0" rx="2" ry="2"/></g><g transform="translate(15, 20) translate(320, 0)"><rect width="11" height="11" x="-4" y="0" class="o" data-level="0" rx="2" ry="2"/><rect width="11" height="11" x="-4" y="15" class="o" data-level="0" rx="2" ry="2"/><rect width="11" height="11" x="-4" y="30" class="o" data-level="0" rx="2" ry="2"/><rect width="11" height="11" x="-4" y="45" class="o" data-level="0" rx="2" ry="2"/><rect width="11" height="11" x="-4" y="60" class="o" data-level="0" rx="2" ry="2"/><rect width="11" height="11" x="-4" y="75" class="o" data-level="0" rx="2" ry="2"/><rect width="11" height="11" x="-4" y="90" class="o" data-level="0" rx="2" ry="2"/></g><g transform="translate(15, 20) translate(336, 0)"><rect width="11" height="11" x="-5" y="0" class="o c c40" data-level="0" rx="2" ry="2"/><rect width="11" height="11" x="-5" y="15" class="o c c41" data-level="0" rx="2" ry="2"/><rect width="11" height="11" x="-5" y="30" class="o c c42" data-level="0" rx="2" ry="2"/><rect width="11" height="11" x="-5" y="45" class="o c c43" data-level="0" rx="2" ry="2"/><rect width="11" height="11" x="-5" y="60" class="o c c44" data-level="0" rx="2" ry="2"/><rect width="11" height="11" x="-5" y="75" class="o c c45" data-level="0" rx="2" ry="2"/><rect width="11" height="11" x="-5" y="90" class="o c c46" data-level="0" rx="2" ry="2"/></g><g transform="translate(15, 20) translate(352, 0)"><rect width="11" height="11" x="-6" y="0" class="o" data-level="0" rx="2" ry="2"/><rect width="11" height="11" x="-6" y="15" class="o" data-level="0" rx="2" ry="2"/><rect width="11" height="11" x="-6" y="30" class="o c c47" data-level="0" rx="2" ry="2"/><rect width="11" height="11" x="-6" y="45" class="o" data-level="0" rx="2" ry="2"/><rect width="11" height="11" x="-6" y="60" class="o" data-level="0" rx="2" ry="2"/><rect width="11" height="11" x="-6" y="75" class="o" data-level="0" rx="2" ry="2"/><rect width="11" height="11" x="-6" y="90" class="o" data-level="0" rx="2" ry="2"/></g><g transform="translate(15, 20) translate(368, 0)"><rect width="11" height="11" x="-7" y="0" class="o" data-level="0" rx="2" ry="2"/><rect width="11" height="11" x="-7" y="15" class="o" data-level="0" rx="2" ry="2"/><rect width="11" height="11" x="-7" y="30" class="o" data-level="0" rx="2" ry="2"/><rect width="11" height="11" x="-7" y="45" class="o c c48" data-level="0" rx="2" ry="2"/><rect width="11" height="11" x="-7" y="60" class="o" data-level="0" rx="2" ry="2"/><rect width="11" height="11" x="-7" y="75" class="o" data-level="0" rx="2" ry="2"/><rect width="11" height="11" x="-7" y="90" class="o" data-level="0" rx="2" ry="2"/></g><g transform="translate(15, 20) translate(384, 0)"><rect width="11" height="11" x="-8" y="0" class="o" data-level="0" rx="2" ry="2"/><rect width="11" height="11" x="-8" y="15" class="o" data-level="0" rx="2" ry="2"/><rect width="11" height="11" x="-8" y="30" class="o" data-level="0" rx="2" ry="2"/><rect width="11" height="11" x="-8" y="45" class="o" data-level="0" rx="2" ry="2"/><rect width="11" height="11" x="-8" y="60" class="o c c49" data-level="0" rx="2" ry="2"/><rect width="11" height="11" x="-8" y="75" class="o" data-level="0" rx="2" ry="2"/><rect width="11" height="11" x="-8" y="90" class="o" data-level="0" rx="2" ry="2"/></g><g transform="translate(15, 20) translate(400, 0)"><rect width="11" height="11" x="-9" y="0" class="o c c50" data-level="0" rx="2" ry="2"/><rect width="11" height="11" x="-9" y="15" class="o c c51" data-level="0" rx="2" ry="2"/><rect width="11" height="11" x="-9" y="30" class="o c c52" data-level="0" rx="2" ry="2"/><rect width="11" height="11" x="-9" y="45" class="o c c53" data-level="0" rx="2" ry="2"/><rect width="11" height="11" x="-9" y="60" class="o c c54" data-level="0" rx="2" ry="2"/><rect width="11" height="11" x="-9" y="75" class="o c c55" data-level="0" rx="2" ry="2"/><rect width="11" height="11" x="-9" y="90" class="o c c56" data-level="0" rx="2" ry="2"/></g><g transform="translate(15, 20) translate(416, 0)"><rect width="11" height="11" x="-10" y="0" class="o" data-level="0" rx="2" ry="2"/><rect width="11" height="11" x="-10" y="15" class="o" data-level="0" rx="2" ry="2"/><rect width="11" height="11" x="-10" y="30" class="o" data-level="0" rx="2" ry="2"/><rect width="11" height="11" x="-10" y="45" class="o" data-level="0" rx="2" ry="2"/><rect width="11" height="11" x="-10" y="60" class="o" data-level="0" rx="2" ry="2"/><rect width="11" height="11" x="-10" y="75" class="o" data-level="0" rx="2" ry="2"/><rect width="11" height="11" x="-10" y="90" class="o" data-level="0" rx="2" ry="2"/></g><g transform="translate(15, 20) translate(432, 0)"><rect width="11" height="11" x="-11" y="0" class="o" data-level="0" rx="2" ry="2"/><rect width="11" height="11" x="-11" y="15" class="o c c57" data-level="0" rx="2" ry="2"/><rect width="11" height="11" x="-11" y="30" class="o" data-level="0" rx="2" ry="2"/><rect width="11" height="11" x="-11" y="45" class="o" data-level="0" rx="2" ry="2"/><rect width="11" height="11" x="-11" y="60" class="o" data-level="0" rx="2" ry="2"/><rect width="11" height="11" x="-11" y="75" class="o" data-level="0" rx="2" ry="2"/><rect width="11" height="11" x="-11" y="90" class="o c c58" data-level="0" rx="2" ry="2"/></g><g transform="translate(15, 20) translate(448, 0)"><rect width="11" height="11" x="-12" y="0" class="o c c59" data-level="0" rx="2" ry="2"/><rect width="11" height="11" x="-12" y="15" class="o" data-level="0" rx="2" ry="2"/><rect width="11" height="11" x="-12" y="30" class="o" data-level="0" rx="2" ry="2"/><rect width="11" height="11" x="-12" y="45" class="o" data-level="0" rx="2" ry="2"/><rect width="11" height="11" x="-12" y="60" class="o" data-level="0" rx="2" ry="2"/><rect width="11" height="11" x="-12" y="75" class="o c c60" data-level="0" rx="2" ry="2"/><rect width="11" height="11" x="-12" y="90" class="o c c61" data-level="0" rx="2" ry="2"/></g><g transform="translate(15, 20) translate(464, 0)"><rect width="11" height="11" x="-13" y="0" class="o c c62" data-level="0" rx="2" ry="2"/><rect width="11" height="11" x="-13" y="15" class="o" data-level="0" rx="2" ry="2"/><rect width="11" height="11" x="-13" y="30" class="o" data-level="0" rx="2" ry="2"/><rect width="11" height="11" x="-13" y="45" class="o" data-level="0" rx="2" ry="2"/><rect width="11" height="11" x="-13" y="60" class="o c c63" data-level="0" rx="2" ry="2"/><rect width="11" height="11" x="-13" y="75" class="o" data-level="0" rx="2" ry="2"/><rect width="11" height="11" x="-13" y="90" class="o c c64" data-level="0" rx="2" ry="2"/></g><g transform="translate(15, 20) translate(480, 0)"><rect width="11" height="11" x="-14" y="0" class="o c c65" data-level="0" rx="2" ry="2"/><rect width="11" height="11" x="-14" y="15" class="o" data-level="0" rx="2" ry="2"/><rect width="11" height="11" x="-14" y="30" class="o" data-level="0" rx="2" ry="2"/><rect width="11" height="11" x="-14" y="45" class="o c c66" data-level="0" rx="2" ry="2"/><rect width="11" height="11" x="-14" y="60" class="o" data-level="0" rx="2" ry="2"/><rect width="11" height="11" x="-14" y="75" class="o" data-level="0" rx="2" ry="2"/><rect width="11" height="11" x="-14" y="90" class="o c c67" data-level="0" rx="2" ry="2"/></g><g transform="translate(15, 20) translate(496, 0)"><rect width="11" height="11" x="-15" y="0" class="o" data-level="0" rx="2" ry="2"/><rect width="11" height="11" x="-15" y="15" class="o c c68" data-level="0" rx="2" ry="2"/><rect width="11" height="11" x="-15" y="30" class="o c c69" data-level="0" rx="2" ry="2"/><rect width="11" height="11" x="-15" y="45" class="o" data-level="0" rx="2" ry="2"/><rect width="11" height="11" x="-15" y="60" class="o" data-level="0" rx="2" ry="2"/><rect width="11" height="11" x="-15" y="75" class="o" data-level="0" rx="2" ry="2"/><rect width="11" height="11" x="-15" y="90" class="o c c70" data-level="0" rx="2" ry="2"/></g><g transform="translate(15, 20) translate(512, 0)"><rect width="11" height="11" x="-16" y="0" class="o" data-level="0" rx="2" ry="2"/><rect width="11" height="11" x="-16" y="15" class="o" data-level="0" rx="2" ry="2"/><rect width="11" height="11" x="-16" y="30" class="o" data-level="0" rx="2" ry="2"/><rect width="11" height="11" x="-16" y="45" class="o" data-level="0" rx="2" ry="2"/><rect width="11" height="11" x="-16" y="60" class="o" data-level="0" rx="2" ry="2"/><rect width="11" height="11" x="-16" y="75" class="o" data-level="0" rx="2" ry="2"/><rect width="11" height="11" x="-16" y="90" class="o" data-level="0" rx="2" ry="2"/></g><g transform="translate(15, 20) translate(528, 0)"><rect width="11" height="11" x="-17" y="0" class="o c c71" data-level="0" rx="2" ry="2"/><rect width="11" height="11" x="-17" y="15" class="o c c72" data-level="0" rx="2" ry="2"/><rect width="11" height="11" x="-17" y="30" class="o c c73" data-level="0" rx="2" ry="2"/><rect width="11" height="11" x="-17" y="45" class="o c c74" data-level="0" rx="2" ry="2"/><rect width="11" height="11" x="-17" y="60" class="o c c75" data-level="0" rx="2" ry="2"/><rect width="11" height="11" x="-17" y="75" class="o c c76" data-level="0" rx="2" ry="2"/><rect width="11" height="11" x="-17" y="90" class="o c c77" data-level="0" rx="2" ry="2"/></g><g transform="translate(15, 20) translate(544, 0)"><rect width="11" height="11" x="-18" y="0" class="o" data-level="0" rx="2" ry="2"/><rect width="11" height="11" x="-18" y="15" class="o" data-level="0" rx="2" ry="2"/><rect width="11" height="11" x="-18" y="30" class="o" data-level="0" rx="2" ry="2"/><rect width="11" height="11" x="-18" y="45" class="o c c78" data-level="0" rx="2" ry="2"/><rect width="11" height="11" x="-18" y="60" class="o" data-level="0" rx="2" ry="2"/><rect width="11" height="11" x="-18" y="75" class="o" data-level="0" rx="2" ry="2"/><rect width="11" height="11" x="-18" y="90" class="o" data-level="0" rx="2" ry="2"/></g><g transform="translate(15, 20) translate(560, 0)"><rect width="11" height="11" x="-19" y="0" class="o" data-level="0" rx="2" ry="2"/><rect width="11" height="11" x="-19" y="15" class="o" data-level="0" rx="2" ry="2"/><rect width="11" height="11" x="-19" y="30" class="o c c79" data-level="0" rx="2" ry="2"/><rect width="11" height="11" x="-19" y="45" class="o" data-level="0" rx="2" ry="2"/><rect width="11" height="11" x="-19" y="60" class="o c c80" data-level="0" rx="2" ry="2"/><rect width="11" height="11" x="-19" y="75" class="o" data-level="0" rx="2" ry="2"/><rect width="11" height="11" x="-19" y="90" class="o" data-level="0" rx="2" ry="2"/></g><g transform="translate(15, 20) translate(576, 0)"><rect width="11" height="11" x="-20" y="0" class="o" data-level="0" rx="2" ry="2"/><rect width="11" height="11" x="-20" y="15" class="o c c81" data-level="0" rx="2" ry="2"/><rect width="11" height="11" x="-20" y="30" class="o" data-level="0" rx="2" ry="2"/><rect width="11" height="11" x="-20" y="45" class="o" data-level="0" rx="2" ry="2"/><rect width="11" height="11" x="-20" y="60" class="o" data-level="0" rx="2" ry="2"/><rect width="11" height="11" x="-20" y="75" class="o c c82" data-level="0" rx="2" ry="2"/><rect width="11" height="11" x="-20" y="90" class="o" data-level="0" rx="2" ry="2"/></g><g transform="translate(15, 20) translate(592, 0)"><rect width="11" height="11" x="-21" y="0" class="o c c83" data-level="0" rx="2" ry="2"/><rect width="11" height="11" x="-21" y="15" class="o" data-level="0" rx="2" ry="2"/><rect width="11" height="11" x="-21" y="30" class="o" data-level="0" rx="2" ry="2"/><rect width="11" height="11" x="-21" y="45" class="o" data-level="0" rx="2" ry="2"/><rect width="11" height="11" x="-21" y="60" class="o" data-level="0" rx="2" ry="2"/><rect width="11" height="11" x="-21" y="75" class="o" data-level="0" rx="2" ry="2"/><rect width="11" height="11" x="-21" y="90" class="o c c84" data-level="0" rx="2" ry="2"/></g><g transform="translate(15, 20) translate(608, 0)"><rect width="11" height="11" x="-22" y="0" class="o" data-level="0" rx="2" ry="2"/><rect width="11" height="11" x="-22" y="15" class="o" data-level="0" rx="2" ry="2"/><rect width="11" height="11" x="-22" y="30" class="o" data-level="0" rx="2" ry="2"/><rect width="11" height="11" x="-22" y="45" class="o" data-level="0" rx="2" ry="2"/><rect width="11" height="11" x="-22" y="60" class="o" data-level="0" rx="2" ry="2"/><rect width="11" height="11" x="-22" y="75" class="o" data-level="0" rx="2" ry="2"/><rect width="11" height="11" x="-22" y="90" class="o" data-level="0" rx="2" ry="2"/></g><g transform="translate(15, 20) translate(624, 0)"><rect width="11" height="11" x="-23" y="0" class="o c c85" data-level="0" rx="2" ry="2"/><rect width="11" height="11" x="-23" y="15" class="o" data-level="0" rx="2" ry="2"/><rect width="11" height="11" x="-23" y="30" class="o" data-level="0" rx="2" ry="2"/><rect width="11" height="11" x="-23" y="45" class="o" data-level="0" rx="2" ry="2"/><rect width="11" height="11" x="-23" y="60" class="o" data-level="0" rx="2" ry="2"/><rect width="11" height="11" x="-23" y="75" class="o c c86" data-level="0" rx="2" ry="2"/><rect width="11" height="11" x="-23" y="90" class="o" data-level="0" rx="2" ry="2"/></g><g transform="translate(15, 20) translate(640, 0)"><rect width="11" height="11" x="-24" y="0" class="o c c87" data-level="0" rx="2" ry="2"/><rect width="11" height="11" x="-24" y="15" class="o" data-level="0" rx="2" ry="2"/><rect width="11" height="11" x="-24" y="30" class="o" data-level="0" rx="2" ry="2"/><rect width="11" height="11" x="-24" y="45" class="o" data-level="0" rx="2" ry="2"/><rect width="11" height="11" x="-24" y="60" class="o" data-level="0" rx="2" ry="2"/><rect width="11" height="11" x="-24" y="75" class="o" data-level="0" rx="2" ry="2"/><rect width="11" height="11" x="-24" y="90" class="o c c88" data-level="0" rx="2" ry="2"/></g><g transform="translate(15, 20) translate(656, 0)"><rect width="11" height="11" x="-25" y="0" class="o c c89" data-level="0" rx="2" ry="2"/><rect width="11" height="11" x="-25" y="15" class="o" data-level="0" rx="2" ry="2"/><rect width="11" height="11" x="-25" y="30" class="o c c90" data-level="0" rx="2" ry="2"/><rect width="11" height="11" x="-25" y="45" class="o" data-level="0" rx="2" ry="2"/><rect width="11" height="11" x="-25" y="60" class="o" data-level="0" rx="2" ry="2"/><rect width="11" height="11" x="-25" y="75" class="o" data-level="0" rx="2" ry="2"/><rect width="11" height="11" x="-25" y="90" class="o c c91" data-level="0" rx="2" ry="2"/></g><g transform="translate(15, 20) translate(672, 0)"><rect width="11" height="11" x="-26" y="0" class="o c c92" data-level="0" rx="2" ry="2"/><rect width="11" height="11" x="-26" y="15" class="o c c93" data-level="0" rx="2" ry="2"/><rect width="11" height="11" x="-26" y="30" class="o" data-level="0" rx="2" ry="2"/><rect width="11" height="11" x="-26" y="45" class="o c c94" data-level="0" rx="2" ry="2"/><rect width="11" height="11" x="-26" y="60" class="o" data-level="0" rx="2" ry="2"/><rect width="11" height="11" x="-26" y="75" class="o" data-level="0" rx="2" ry="2"/><rect width="11" height="11" x="-26" y="90" class="o c c95" data-level="0" rx="2" ry="2"/></g><g transform="translate(15, 20) translate(688, 0)"><rect width="11" height="11" x="-27" y="0" class="o c c96" data-level="0" rx="2" ry="2"/><rect width="11" height="11" x="-27" y="15" class="o" data-level="0" rx="2" ry="2"/><rect width="11" height="11" x="-27" y="30" class="o" data-level="0" rx="2" ry="2"/><rect width="11" height="11" x="-27" y="45" class="o" data-level="0" rx="2" ry="2"/><rect width="11" height="11" x="-27" y="60" class="o c c97" data-level="0" rx="2" ry="2"/><rect width="11" height="11" x="-27" y="75" class="o c c98" data-level="0" rx="2" ry="2"/><rect width="11" height="11" x="-27" y="90" class="o" data-level="0" rx="2" ry="2"/></g><g transform="translate(15, 20) translate(704, 0)"><rect width="11" height="11" x="-28" y="0" class="o" data-level="0" rx="2" ry="2"/><rect width="11" height="11" x="-28" y="15" class="o" data-level="0" rx="2" ry="2"/><rect width="11" height="11" x="-28" y="30" class="o" data-level="0" rx="2" ry="2"/><rect width="11" height="11" x="-28" y="45" class="o" data-level="0" rx="2" ry="2"/><rect width="11" height="11" x="-28" y="60" class="o" data-level="0" rx="2" ry="2"/><rect width="11" height="11" x="-28" y="75" class="o" data-level="0" rx="2" ry="2"/><rect width="11" height="11" x="-28" y="90" class="o" data-level="0" rx="2" ry="2"/></g><g transform="translate(15, 20) translate(720, 0)"><rect width="11" height="11" x="-29" y="0" class="o" data-level="0" rx="2" ry="2"/><rect width="11" height="11" x="-29" y="15" class="o" data-level="0" rx="2" ry="2"/><rect width="11" height="11" x="-29" y="30" class="o" data-level="0" rx="2" ry="2"/><rect width="11" height="11" x="-29" y="45" class="o" data-level="0" rx="2" ry="2"/><rect width="11" height="11" x="-29" y="60" class="o" data-level="0" rx="2" ry="2"/><rect width="11" height="11" x="-29" y="75" class="o" data-level="0" rx="2" ry="2"/><rect width="11" height="11" x="-29" y="90" class="o" data-level="0" rx="2" ry="2"/></g><g transform="translate(15, 20) translate(736, 0)"><rect width="11" height="11" x="-30" y="0" class="o" data-level="0" rx="2" ry="2"/><rect width="11" height="11" x="-30" y="15" class="o" data-level="0" rx="2" ry="2"/><rect width="11" height="11" x="-30" y="30" class="o" data-level="0" rx="2" ry="2"/><rect width="11" height="11" x="-30" y="45" class="o" data-level="0" rx="2" ry="2"/><rect width="11" height="11" x="-30" y="60" class="o" data-level="0" rx="2" ry="2"/><rect width="11" height="11" x="-30" y="75" class="o" data-level="0" rx="2" ry="2"/><rect width="11" height="11" x="-30" y="90" class="o" data-level="0" rx="2" ry="2"/></g><g transform="translate(15, 20) translate(752, 0)"><rect width="11" height="11" x="-31" y="0" class="o c c99" data-level="0" rx="2" ry="2"/><rect width="11" height="11" x="-31" y="15" class="o c c100" data-level="0" rx="2" ry="2"/><rect width="11" height="11" x="-31" y="30" class="o c c101" data-level="0" rx="2" ry="2"/><rect width="11" height="11" x="-31" y="45" class="o c c102" data-level="0" rx="2" ry="2"/><rect width="11" height="11" x="-31" y="60" class="o c c103" data-level="0" rx="2" ry="2"/><rect width="11" height="11" x="-31" y="75" class="o" data-level="0" rx="2" ry="2"/><rect width="11" height="11" x="-31" y="90" class="o c c104" data-level="0" rx="2" ry="2"/></g><g transform="translate(15, 20) translate(768, 0)"><rect width="11" height="11" x="-32" y="0" class="o" data-level="0" rx="2" ry="2"/><rect width="11" height="11" x="-32" y="15" class="o" data-level="0" rx="2" ry="2"/><rect width="11" height="11" x="-32" y="30" class="o" data-level="0" rx="2" ry="2"/><rect width="11" height="11" x="-32" y="45" class="o" data-level="0" rx="2" ry="2"/><rect width="11" height="11" x="-32" y="60" class="o" data-level="0" rx="2" ry="2"/><rect width="11" height="11" x="-32" y="75" class="o" data-level="0" rx="2" ry="2"/><rect width="11" height="11" x="-32" y="90" class="o" data-level="0" rx="2" ry="2"/></g><g transform="translate(15, 20) translate(784, 0)"><rect width="11" height="11" x="-33" y="0" class="o" data-level="0" rx="2" ry="2"/><rect width="11" height="11" x="-33" y="15" class="o" data-level="0" rx="2" ry="2"/><rect width="11" height="11" x="-33" y="30" class="o" data-level="0" rx="2" ry="2"/><rect width="11" height="11" x="-33" y="45" class="o" data-level="0" rx="2" ry="2"/><rect width="11" height="11" x="-33" y="60" class="o" data-level="0" rx="2" ry="2"/><rect width="11" height="11" x="-33" y="75" class="o" data-level="0" rx="2" ry="2"/><rect width="11" height="11" x="-33" y="90" class="o" data-level="0" rx="2" ry="2"/></g><g transform="translate(15, 20) translate(800, 0)"><rect width="11" height="11" x="-34" y="0" class="o" data-level="0" rx="2" ry="2"/><rect width="11" height="11" x="-34" y="15" class="o" data-level="0" rx="2" ry="2"/><rect width="11" height="11" x="-34" y="30" class="o" data-level="0" rx="2" ry="2"/><rect width="11" height="11" x="-34" y="45" class="o" data-level="0" rx="2" ry="2"/><rect width="11" height="11" x="-34" y="60" class="o" data-level="0" rx="2" ry="2"/><rect width="11" height="11" x="-34" y="75" class="o" data-level="0" rx="2" ry="2"/><rect width="11" height="11" x="-34" y="90" class="o" data-level="0" rx="2" ry="2"/></g><g transform="translate(15, 20) translate(816, 0)"><rect width="11" height="11" x="-35" y="0" class="o" data-level="0" rx="2" ry="2"/><rect width="11" height="11" x="-35" y="15" class="o" data-level="0" rx="2" ry="2"/><rect width="11" height="11" x="-35" y="30" class="o" data-level="0" rx="2" ry="2"/><rect width="11" height="11" x="-35" y="45" class="o" data-level="0" rx="2" ry="2"/><rect width="11" height="11" x="-35" y="60" class="o" data-level="0" rx="2" ry="2"/><rect width="11" height="11" x="-35" y="75" class="o" data-level="0" rx="2" ry="2"/><rect width="11" height="11" x="-35" y="90" class="o" data-level="0" rx="2" ry="2"/></g><g transform="translate(15, 20) translate(832, 0)"><rect width="11" height="11" x="-36" y="0" class="o" data-level="0" rx="2" ry="2"/><rect width="11" height="11" x="-36" y="15" class="o" data-level="0" rx="2" ry="2"/><rect width="11" height="11" x="-36" y="30" class="o" data-level="0" rx="2" ry="2"/><rect width="11" height="11" x="-36" y="45" class="o" data-level="0" rx="2" ry="2"/><rect width="11" height="11" x="-36" y="60" class="o" data-level="0" rx="2" ry="2"/><rect width="11" height="11" x="-36" y="75" class="o" data-level="0" rx="2" ry="2"/><rect width="11" height="11" x="-36" y="90" class="o" data-level="0" rx="2" ry="2"/></g></g><a href="https://github.com/jasineri/gitartwork"><text x="24" y="139" fill="#00f" font-size=".6em">Get your own gitartwork on jasineri/gitartwork</text></a></svg>